<?xml version="1.0" encoding="utf-8"?>
<!-- Generator: Adobe Illustrator 16.0.0, SVG Export Plug-In . SVG Version: 6.00 Build 0)  -->
<!DOCTYPE svg PUBLIC "-//W3C//DTD SVG 1.1//EN" "http://www.w3.org/Graphics/SVG/1.1/DTD/svg11.dtd">
<svg version="1.1" id="Calque_1" xmlns="http://www.w3.org/2000/svg" xmlns:xlink="http://www.w3.org/1999/xlink" x="0px" y="0px"
	 width="295px" height="51px" viewBox="0 0 295 51" enable-background="new 0 0 295 51" xml:space="preserve">
<g>
	<path fill="#0A1499" d="M13.013,12.869c1.997,0,3.855,0.999,5.095,2.548l4.303-3.822c-2.341-2.479-5.715-4.062-9.398-4.062
		c-6.886,0-12.704,5.577-12.704,12.221S6.127,32.01,13.013,32.01c3.683,0,7.057-1.584,9.398-4.098l-4.269-3.786
		c-1.274,1.549-3.099,2.548-5.129,2.548c-3.615,0-6.679-3.168-6.679-6.92C6.333,16.036,9.397,12.869,13.013,12.869z"/>
	<polygon fill="#0A1499" points="41.339,17.722 31.339,17.722 31.339,7.722 25.339,7.722 25.339,31.722 31.339,31.722 
		31.339,21.722 41.339,21.722 41.339,31.722 47.339,31.722 47.339,7.722 41.339,7.722 	"/>
	<polygon fill="#0A1499" points="57.339,7.722 51.339,7.722 51.339,31.722 68.339,31.722 68.339,25.722 57.339,25.722 	"/>
	<path fill="#0A1499" d="M83.269,7.533c-6.886,0-12.703,5.577-12.703,12.221S76.383,32.01,83.269,32.01
		c6.919,0,12.737-5.612,12.737-12.256S90.188,7.533,83.269,7.533z M83.269,26.674c-3.615,0-6.679-3.168-6.679-6.92
		c0-3.718,3.064-6.885,6.679-6.885s6.679,3.167,6.679,6.885C89.948,23.506,86.884,26.674,83.269,26.674z"/>
	<polygon fill="#0A1499" points="113.974,1.24 108.879,0.279 104.955,5.722 108.81,5.722 	"/>
	<polygon fill="#0A1499" points="126.362,41.042 120.302,25.722 113.693,25.722 113.714,25.722 105.339,25.722 105.339,21.722 
		117.339,21.722 117.339,17.722 105.339,17.722 105.339,12.722 118.339,12.722 118.339,7.722 100.339,7.722 100.339,31.722 
		115.798,31.722 123.057,50.722 129.667,50.722 139.03,25.722 132.42,25.722 	"/>
	<path fill="#0A1499" d="M148.874,25.722l-9.364,25h6.61l1.377-5h9.364l1.379,5h6.608l-9.363-25H148.874z M149.322,41.722
		l2.857-7.265l2.857,7.265H149.322z"/>
	<path fill="#0A1499" d="M183.339,39.291c0,3.339-2.021,5.715-5.016,5.715c-2.961,0-4.984-2.376-4.984-5.715V25.722h-6v13.844
		c0,6.335,4.563,10.777,11,10.777c6.475,0,11-4.442,11-10.777V25.722h-6V39.291z"/>
	<polygon fill="#0A1499" points="191.339,31.722 199.339,31.722 199.339,50.722 204.339,50.722 204.339,31.722 211.339,31.722 
		211.339,25.722 191.339,25.722 	"/>
	<polygon fill="#0A1499" points="230.339,35.722 222.339,35.722 222.339,25.722 216.339,25.722 216.339,50.722 222.339,50.722 
		222.339,40.722 230.339,40.722 230.339,50.722 237.339,50.722 237.339,25.722 230.339,25.722 	"/>
	<rect x="242.339" y="25.722" fill="#0A1499" width="5" height="25"/>
	<polygon fill="#0A1499" points="252.339,50.722 270.339,50.722 270.339,44.722 257.339,44.722 257.339,40.722 269.339,40.722 
		269.339,35.722 257.339,35.722 257.339,31.722 270.339,31.722 270.339,25.722 252.339,25.722 	"/>
	<path fill="#0A1499" d="M288.976,42.2c3.064-1.238,5.028-4.434,5.028-7.877c0-4.783-3.787-8.602-8.986-8.602h-11.679v25h6v-8h3.477
		l5.196,8h6.679L288.976,42.2z M284.466,37.722h-5.127v-6h5.127c2.033,0,3.479,1.348,3.479,3S286.499,37.722,284.466,37.722z"/>
</g>
</svg>
